<!DOCTYPE svg PUBLIC "-//W3C//DTD SVG 1.1//EN" "http://www.w3.org/Graphics/SVG/1.1/DTD/svg11.dtd">
<svg xmlns="http://www.w3.org/2000/svg" width="512" height="512" viewBox="0 0 512 512">
  <!-- Background circle -->
  <circle cx="256" cy="256" r="256" fill="#4f46e5" />
  
  <!-- Letter J -->
  <path d="M150 130 L190 130 L190 280 Q190 310 175 325 Q160 340 130 340 L120 340 L120 300 L130 300 Q145 300 152 293 Q160 285 160 270 L160 130 Z" fill="white" />
  
  <!-- Letters am -->
  <path d="M210 200 L240 200 L240 215 Q250 200 270 200 Q290 200 300 215 Q310 200 335 200 Q355 200 367 212 Q380 225 380 250 L380 330 L350 330 L350 255 Q350 240 345 233 Q340 225 325 225 Q310 225 305 233 Q300 240 300 255 L300 330 L270 330 L270 255 Q270 240 265 233 Q260 225 245 225 Q230 225 225 233 Q220 240 220 255 L220 330 L190 330 L190 200 Z" fill="white" />
  
  <!-- Number 3 -->
  <path d="M390 200 L420 200 L420 330 L390 330 Z M390 150 L420 150 L420 180 L390 180 Z" fill="white" />
  
  <!-- Letter a -->
  <path d="M430 200 L460 200 L460 215 Q470 200 490 200 Q510 200 520 212 Q530 225 530 250 L530 330 L500 330 L500 255 Q500 240 495 233 Q490 225 475 225 Q460 225 455 233 Q450 240 450 255 L450 330 L420 330 L420 200 Z" fill="white" />
</svg>
